<svg width="130" height="43" viewBox="0 0 130 43" fill="none" xmlns="http://www.w3.org/2000/svg">
<path d="M14.25 5C14.25 12.8701 7.87006 19.25 0 19.25V28.75H14.25V43H23.75C23.75 35.1299 30.1299 28.75 38 28.75V19.25H23.75V5H14.25Z" fill="url(#paint0_linear_40_5)"/>
<path d="M23.75 19.25C23.75 27.1201 22.1201 28.75 14.25 28.75V43H23.75C23.75 35.1299 30.1299 28.75 38 28.75V19.25H23.75Z" fill="url(#paint1_linear_40_5)"/>
<path d="M50.936 35V13.75H44.374V9.67H62.054V13.75H55.594V35H50.936ZM62.4763 35V16.504H66.6583V20.618L66.3183 20.006C66.749 18.6233 67.4177 17.66 68.3243 17.116C69.2537 16.572 70.3643 16.3 71.6563 16.3H72.7443V20.244H71.1463C69.877 20.244 68.857 20.6407 68.0863 21.434C67.3157 22.2047 66.9303 23.2927 66.9303 24.698V35H62.4763ZM75.1931 35V16.504H79.6471V35H75.1931ZM75.1931 14.43V9.67H79.6471V14.43H75.1931ZM83.7595 41.8V16.504H87.9415V20.176L87.5335 19.258C88.1682 18.2607 89.0295 17.49 90.1175 16.946C91.2055 16.3793 92.4635 16.096 93.8915 16.096C95.6369 16.096 97.2122 16.5267 98.6175 17.388C100.023 18.2493 101.134 19.4053 101.95 20.856C102.788 22.3067 103.208 23.9387 103.208 25.752C103.208 27.5427 102.8 29.1747 101.984 30.648C101.168 32.1213 100.057 33.2887 98.6515 34.15C97.2462 34.9887 95.6482 35.408 93.8575 35.408C92.5202 35.408 91.2849 35.1473 90.1515 34.626C89.0409 34.082 88.1569 33.3113 87.4995 32.314L88.2135 31.43V41.8H83.7595ZM93.3475 31.328C94.3675 31.328 95.2742 31.09 96.0675 30.614C96.8609 30.138 97.4729 29.4807 97.9035 28.642C98.3569 27.8033 98.5835 26.84 98.5835 25.752C98.5835 24.664 98.3569 23.712 97.9035 22.896C97.4729 22.0573 96.8609 21.4 96.0675 20.924C95.2742 20.4253 94.3675 20.176 93.3475 20.176C92.3729 20.176 91.4889 20.414 90.6955 20.89C89.9249 21.366 89.3129 22.0347 88.8595 22.896C88.4289 23.7347 88.2135 24.6867 88.2135 25.752C88.2135 26.84 88.4289 27.8033 88.8595 28.642C89.3129 29.4807 89.9249 30.138 90.6955 30.614C91.4889 31.09 92.3729 31.328 93.3475 31.328ZM106.603 35V9.262H111.057V35H106.603ZM113.572 35V31.396L124.316 18.952L124.996 20.482H114.048V16.504H128.94V20.142L118.4 32.586L117.72 31.056H129.008V35H113.572Z" fill="black"/>
<defs>
<linearGradient id="paint0_linear_40_5" x1="29" y1="13" x2="8" y2="37.5" gradientUnits="userSpaceOnUse">
<stop stop-color="#F75151"/>
<stop offset="1" stop-color="#950B0B"/>
</linearGradient>
<linearGradient id="paint1_linear_40_5" x1="38.5" y1="40" x2="18" y2="21.5" gradientUnits="userSpaceOnUse">
<stop stop-color="#B90E0E"/>
<stop offset="1" stop-color="#5D0404"/>
</linearGradient>
</defs>
</svg>
